#N canvas 400 200 360 300 16;
#X obj 140 20 cnv 15 70 27 empty empty sesom 0 12 0 24 #535512 #fcfcfc 0;
#X floatatom 60 250 0 0 0 0 - - - 0;
#X floatatom 120 250 0 0 0 0 - - - 0;
#X floatatom 190 250 0 0 0 0 - - - 0;
#X floatatom 250 250 0 0 0 0 - - - 0;
#X obj 60 200 sesom 5;
#X obj 190 200 moses 5;
#X text 20 50 Reverse moses. Outputs numbers to the left if they're greater than control value., f 30;
#X obj 70 230 bng 18 250 50 0 empty empty empty 0 -12 0 16 #fcfcfc #000000 #000000;
#X obj 130 230 bng 18 250 50 0 empty empty empty 0 -12 0 16 #fcfcfc #000000 #000000;
#X obj 200 230 bng 18 250 50 0 empty empty empty 0 -12 0 16 #fcfcfc #000000 #000000;
#X obj 260 230 bng 18 250 50 0 empty empty empty 0 -12 0 16 #fcfcfc #000000 #000000;
#X obj 100 160 +;
#X obj 140 160 f;
#X msg 140 120 1;
#X msg 100 120 -1;
#X connect 5 0 1 0;
#X connect 5 0 8 0;
#X connect 5 1 2 0;
#X connect 5 1 9 0;
#X connect 6 0 3 0;
#X connect 6 0 10 0;
#X connect 6 1 4 0;
#X connect 6 1 11 0;
#X connect 12 0 13 0;
#X connect 12 0 5 0;
#X connect 12 0 6 0;
#X connect 13 0 12 1;
#X connect 14 0 12 0;
#X connect 15 0 12 0;
